<svg version="1.1" xmlns="http://www.w3.org/2000/svg" xmlns:xlink="http://www.w3.org/1999/xlink" style="height: 30px;" x="0px" y="0px" width="72" height="72" viewBox="0 0 24 24" enable-background="new 0 0 72 72" xml:space="preserve"><g><g clip-path="url(#1-clip0_8_4)"><g fill="#ED0604" filter="url(#1-filter0_d_8_4)"><path d="M22.334 11.581c-.296-1.788-1.719-2.624-3.34-2.677-1.62-.053-3.073 1.277-3.284 2.387-.21 1.11-1.247 2.485-1.437 3.425-.19.94.024 4.497 4.657 4.453 4.633-.044 4.354-3.259 4.348-4.034-.006-.774-.573-1.318-.944-3.554z"></path></g><path d="M21.24 11.528c-.37-1.11-1.273-1.51-2.346-1.443-.999.064-1.765.55-2.071 1.507-.307.959-.168 2.05 2.148 2.042 2.316-.008 2.73-.718 2.269-2.106z" fill="#FAFCF9"></path><circle cx="18.018" cy="11.778" fill="#FFC0C0" r=".613" transform="rotate(19.165 18.018 11.778)"></circle><circle cx="19.842" cy="11.67" fill="#FFC0C0" r=".613" transform="rotate(19.165 19.842 11.67)"></circle><circle cx="18.017" cy="11.778" fill="#fff" r=".47" transform="rotate(19.165 18.017 11.778)"></circle><circle cx="19.842" cy="11.67" fill="#fff" r=".47" transform="rotate(19.165 19.842 11.67)"></circle><path d="M17.706 12.51c-.21-.152-.268.084-.273.176-.004.092.008.272.281.371.273.1.795-.399 1.357-.4.553-.003 1.027.57 1.424.256.362-.286.206-.73-.035-.546-.122.093-.857.157-.958.116-.121-.05-.408-.326-.797-.03-.332.255-.82.187-1 .057z" fill="#0B0A06"></path><circle cx="18.018" cy="11.778" fill="#0B0A06" r=".337" transform="rotate(19.165 18.018 11.778)"></circle><circle cx="19.842" cy="11.67" fill="#0B0A06" r=".337" transform="rotate(19.165 19.842 11.67)"></circle><path d="M18.451 16.151c-.102-1.041-.462-1.208-.628-1.161-.107.086-.273.49-.082 1.417.19.928.4 1.099.48 1.068.12-.007.333-.282.23-1.324zm1.647.172c.238-1.019-.048-1.292-.221-1.302-.129.047-.416.376-.535 1.316-.118.94.025 1.169.112 1.166.115.031.405-.16.644-1.18zm1.678-.462c.375-.977.128-1.287-.042-1.32-.134.03-.463.316-.708 1.23-.245.916-.134 1.162-.047 1.171.11.047.423-.103.797-1.08zm-6.034-.109c-.28-1.009-.005-1.293.167-1.31.13.041.431.358.589 1.292.157.934.023 1.169-.064 1.17-.113.036-.411-.144-.692-1.152z" fill="#FAFCF9"></path><path d="M20.33 10.68c-.094-.289-.482-.222-.664-.152-.173.047-.423.338-.325.555.078.173.416.11.575.058.177-.033.508-.17.414-.46zm-2.873.183c.057-.3.45-.281.64-.235.178.025.462.283.392.51-.056.182-.4.162-.564.13-.18-.01-.525-.106-.468-.405z" fill="#0B0A06"></path><g filter="url(#1-filter1_d_8_4)"><path style="fill: var(--TUIC-favicon-color)" clip-rule="evenodd" d="M18.436 1.92h3.403l-7.433 8.495 8.745 11.563h-6.849l-5.363-7.012-6.136 7.012H1.4l7.951-9.088L.96 1.92h7.02l4.848 6.41 5.608-6.41zm-1.194 18.021h1.886L6.958 3.851H4.933l12.308 16.09z"></path></g></g><defs><filter color-interpolation-filters="sRGB" filterUnits="userSpaceOnUse" height="10.634" id="1-filter0_d_8_4" width="9.358" x="14.076" y="8.903"><feFlood flood-opacity="0" result="BackgroundImageFix"></feFlood><feColorMatrix in="SourceAlpha" result="hardAlpha" values="0 0 0 0 0 0 0 0 0 0 0 0 0 0 0 0 0 0 127 0"></feColorMatrix><feOffset dy=".216"></feOffset><feGaussianBlur stdDeviation=".076"></feGaussianBlur><feComposite in2="hardAlpha" operator="out"></feComposite><feColorMatrix values="0 0 0 0 0 0 0 0 0 0 0 0 0 0 0 0 0 0 0.4 0"></feColorMatrix><feBlend in2="BackgroundImageFix" result="effect1_dropShadow_8_4"></feBlend><feBlend in="SourceGraphic" in2="effect1_dropShadow_8_4" result="shape"></feBlend></filter><filter color-interpolation-filters="sRGB" filterUnits="userSpaceOnUse" height="22.423" id="1-filter1_d_8_4" width="24.471" x="-.213" y=".85"><feFlood flood-opacity="0" result="BackgroundImageFix"></feFlood><feColorMatrix in="SourceAlpha" result="hardAlpha" values="0 0 0 0 0 0 0 0 0 0 0 0 0 0 0 0 0 0 127 0"></feColorMatrix><feOffset dy=".103"></feOffset><feGaussianBlur stdDeviation=".106"></feGaussianBlur><feComposite in2="hardAlpha" operator="out"></feComposite><feColorMatrix values="0 0 0 0 0 0 0 0 0 0 0 0 0 0 0 0 0 0 0.55 0"></feColorMatrix><feBlend in2="BackgroundImageFix" mode="plus-darker" result="effect1_dropShadow_8_4"></feBlend><feBlend in="SourceGraphic" in2="effect1_dropShadow_8_4" result="shape"></feBlend></filter><clipPath id="1-clip0_8_4"><path d="M0 0h24v24H0z" fill="#fff"></path></clipPath></defs></g></svg>