<?xml version="1.0" encoding="UTF-8" standalone="no"?>
<!DOCTYPE svg PUBLIC "-//W3C//DTD SVG 1.1//EN" "http://www.w3.org/Graphics/SVG/1.1/DTD/svg11.dtd">
<!-- Created with Vectornator (http://vectornator.io/) -->
<svg height="100%" stroke-miterlimit="10" style="fill-rule:nonzero;clip-rule:evenodd;stroke-linecap:round;stroke-linejoin:round;" version="1.1" viewBox="0 0 24 24" width="100%" xml:space="preserve" xmlns="http://www.w3.org/2000/svg" xmlns:xlink="http://www.w3.org/1999/xlink">
<defs/>
<g id="名称未設定">
<path d="M9.30797 8.96776C9.01466 8.96776 8.7195 9.07898 8.4957 9.30278L7.61706 10.1814C7.16944 10.629 7.16946 11.3552 7.61706 11.8028L9.4976 13.6865L7.61706 15.567C7.16946 16.0146 7.16944 16.7408 7.61706 17.1884L8.4957 18.0702C8.9433 18.5178 9.66952 18.5178 10.1171 18.0702L12.0008 16.1865L13.8813 18.0702C14.3289 18.5178 15.0551 18.5178 15.5027 18.0702L16.3845 17.1884C16.8321 16.7408 16.8321 16.0146 16.3845 15.567L14.5008 13.6865L16.3845 11.8028C16.8321 11.3552 16.8321 10.629 16.3845 10.1814L15.5027 9.30278C15.0551 8.85518 14.3289 8.85518 13.8813 9.30278L12.0008 11.1833L10.1171 9.30278C9.8933 9.07898 9.60128 8.96776 9.30797 8.96776Z" fill="#000000" fill-rule="nonzero" opacity="0" stroke="none"/>
<path d="M12 1.6875L0.1875 9.0625L1.25 10.7812L3 9.6875L3 19.5C3 20.881 4.119 22 5.5 22L18.5 22C19.881 22 21 20.881 21 19.5L21 9.6875L22.75 10.7812L23.8125 9.0625C23.8125 9.0625 12 1.6875 12 1.6875ZM12 4.0625L19 8.4375L19 19.5C19 19.776 18.776 20 18.5 20L5.5 20C5.224 20 5 19.776 5 19.5L5 8.4375L12 4.0625ZM9.09375 9.03125L7.34375 10.7812L10.25 13.6875L7.34375 16.5938L9.09375 18.3438L12 15.4375L14.9062 18.3438L16.6562 16.5938L13.75 13.6875L16.6562 10.7812L14.9062 9.03125L12 11.9375L9.09375 9.03125Z" style="fill: var(--twitter-TUIC-color)" fill-rule="nonzero" opacity="1" stroke="none"/>
</g>
</svg>
