<?xml version="1.0" encoding="UTF-8" standalone="no"?>
<!DOCTYPE svg PUBLIC "-//W3C//DTD SVG 1.1//EN" "http://www.w3.org/Graphics/SVG/1.1/DTD/svg11.dtd">
<!-- Created with Vectornator (http://vectornator.io/) -->
<svg height="100%" stroke-miterlimit="10" style="fill-rule:nonzero;clip-rule:evenodd;stroke-linecap:round;stroke-linejoin:round;" version="1.1" viewBox="0 0 1024 301" width="100%" xml:space="preserve" xmlns="http://www.w3.org/2000/svg" xmlns:xlink="http://www.w3.org/1999/xlink">
<defs/>
<g id="レイヤー-1">
<path d="M183.281 0.5C174.797 0.500007 166.316 2.6168 159.531 6.90625L128.031 26.8438L47.5 77.75L6.71875 103.531C-0.025949 107.795-2.01365 116.724 2.25 123.469C6.5141 130.213 15.4433 132.233 22.1875 127.969L47.5 111.938L47.5 265.844C47.5 284.995 63.0366 300.5 82.1875 300.5L284.406 300.5C303.557 300.5 319.093 284.995 319.094 265.844L319.094 111.938L344.375 127.969C351.12 132.233 360.048 130.213 364.312 123.469C368.577 116.724 366.558 107.795 359.812 103.531L319.094 77.8125L238.531 26.8438L207.062 6.90625C200.278 2.61674 191.765 0.500025 183.281 0.5ZM142.562 103.375C147 103.375 151.427 105.052 154.812 108.438L183.281 136.938L211.75 108.438C218.521 101.667 229.51 101.667 236.281 108.438L249.562 121.781C256.333 128.552 256.334 139.51 249.562 146.281L221.125 174.75L249.562 203.219C256.334 209.99 256.333 220.979 249.562 227.75L236.281 241.062C229.51 247.833 218.521 247.833 211.75 241.062L183.281 212.594L154.812 241.062C148.042 247.833 137.052 247.833 130.281 241.062L116.969 227.75C110.198 220.979 110.198 209.99 116.969 203.219L145.438 174.75L116.969 146.281C110.198 139.51 110.198 128.552 116.969 121.781L130.281 108.438C133.667 105.052 138.126 103.375 142.562 103.375Z" fill="#71767c" fill-rule="nonzero" opacity="1" stroke="none"/>
<path d="M505.732 74.9351C499.979 74.9217 493.756 75.6436 487.038 77.2301C487.038 77.23 474.548 80.1622 470.16 81.1983L396.245 98.6493C386.926 100.85 381.184 110.223 383.384 119.543L387.687 137.854C389.887 147.173 399.261 152.964 408.58 150.763L452.757 140.34L481.3 261.206C483.501 270.525 492.875 276.315 502.194 274.115L520.505 269.764C529.825 267.563 535.615 258.238 533.414 248.918L504.919 128.34C528.393 124.597 548.53 132.306 560.953 139.288C560.986 139.374 566.124 142.266 569.081 139.719C571.876 137.311 570.35 132.436 570.324 132.356C563.441 110.772 545.999 75.0295 505.732 74.9351Z" fill="#71767c" fill-rule="nonzero" opacity="1" stroke="none"/>
<path d="M605.608 77.2301C596.033 77.2301 588.299 84.9619 588.301 94.5375L588.301 191.928C588.301 202.914 590.527 213.372 594.516 222.909C602.656 242.363 618.236 257.942 637.689 266.082C647.227 270.074 657.684 272.298 668.671 272.298C679.656 272.298 690.114 270.073 699.652 266.082C719.106 257.942 734.683 242.363 742.825 222.909C746.816 213.372 749.039 202.914 749.04 191.928L749.04 94.5375C749.04 84.9619 741.26 77.23 731.685 77.2301L712.848 77.2301C703.272 77.2301 695.492 84.962 695.492 94.5375L695.492 191.928C695.492 206.751 688.335 222.479 668.671 222.479C649.429 222.479 641.801 206.751 641.801 191.928L641.801 94.5375C641.801 84.9619 634.069 77.23 624.494 77.2301L605.608 77.2301Z" fill="#71767c" fill-rule="nonzero" opacity="1" stroke="none"/>
<path d="M793.361 77.2301C783.786 77.23 776.054 84.9619 776.054 94.5375L776.054 254.943C776.053 264.518 783.785 272.298 793.361 272.298L812.246 272.298C821.822 272.298 829.554 264.518 829.554 254.943L829.554 94.5375C829.553 84.962 821.823 77.2301 812.246 77.2301L793.361 77.2301Z" fill="#71767c" fill-rule="nonzero" opacity="1" stroke="none"/>
<path d="M949.893 77.2062C896.022 77.2062 852.359 120.916 852.36 174.788C852.359 228.659 896.022 272.322 949.893 272.322C976.829 272.322 1001.23 261.379 1018.88 243.731C1022.05 240.59 1024 236.207 1024 231.396C1024 227.253 1022.36 223.621 1019.94 220.638L1008.32 207.347C1005.15 203.844 1000.65 201.562 995.553 201.562C990.368 201.562 985.869 203.932 982.692 207.538C982.692 207.538 982.562 207.669 982.502 207.728C974.161 215.966 962.549 220.925 949.893 220.925C924.401 220.925 903.756 200.28 903.756 174.788C903.756 149.295 924.401 128.603 949.893 128.603C962.514 128.603 973.966 133.677 982.3 141.886C982.383 141.968 982.564 142.153 982.564 142.153C985.739 145.714 990.406 147.823 995.553 147.823C1000.74 147.823 1005.41 145.577 1008.58 141.971L1020.19 129.007C1022.57 126.041 1024 122.275 1024 118.18C1024 113.354 1022.02 108.988 1018.84 105.845L1018.88 105.797C1001.23 88.1404 976.83 77.2062 949.893 77.2062Z" fill="#71767c" fill-rule="nonzero" opacity="1" stroke="none"/>
</g>
</svg>
