<?xml version="1.0" encoding="UTF-8" standalone="no"?>
<!DOCTYPE svg PUBLIC "-//W3C//DTD SVG 1.1//EN" "http://www.w3.org/Graphics/SVG/1.1/DTD/svg11.dtd">
<!-- Created with Vectornator (http://vectornator.io/) -->
<svg height="100%" stroke-miterlimit="10" style="fill-rule:nonzero;clip-rule:evenodd;stroke-linecap:round;stroke-linejoin:round;" version="1.1" viewBox="0 0 1024 1024" width="100%" xml:space="preserve" xmlns="http://www.w3.org/2000/svg" xmlns:vectornator="http://vectornator.io" xmlns:xlink="http://www.w3.org/1999/xlink">
<defs/>
<g id="レイヤー-1" vectornator:layerName="レイヤー 1">
<path d="M511.925 92.8613C488.224 92.8614 464.617 98.9495 445.663 110.933L357.662 166.457L132.684 308.847L18.7544 380.872C-0.0881082 392.784-5.6425 417.553 6.27015 436.396C18.1827 455.239 43.1267 460.968 61.9691 449.055L132.684 404.356L132.684 834.146C132.684 887.647 176.088 931.139 229.59 931.139L794.523 931.139C848.025 931.139 891.429 887.647 891.429 834.146L891.429 404.356L962.056 449.055C980.899 460.968 1005.84 455.239 1017.76 436.396C1029.67 417.554 1024.03 392.784 1005.18 380.872L891.429 308.847L666.363 166.457L578.45 110.933C559.495 98.9494 535.627 92.8614 511.925 92.8613ZM398.258 380.261C410.654 380.261 423.023 385.12 432.48 394.578L512.013 474.198L591.545 394.578C610.461 375.663 641.162 375.663 660.078 394.578L697.181 431.769C716.097 450.685 716.097 481.299 697.181 500.214L617.736 579.834L697.181 659.366C716.097 678.282 716.097 708.896 697.181 727.811L660.078 765.002C641.162 783.918 610.461 783.918 591.545 765.002L512.013 685.47L432.48 765.002C413.565 783.918 382.863 783.918 363.948 765.002L326.757 727.811C307.842 708.896 307.842 678.282 326.757 659.366L406.377 579.834L326.757 500.214C307.842 481.299 307.842 450.685 326.757 431.769L363.948 394.578C373.406 385.12 385.862 380.261 398.258 380.261Z"  style="fill: #71767c;" fill-rule="nonzero" opacity="1" stroke="none" vectornator:layerName="曲線 9"/>
</g>
</svg>
