<?xml version="1.0" encoding="UTF-8" standalone="no"?>
<!DOCTYPE svg PUBLIC "-//W3C//DTD SVG 1.1//EN" "http://www.w3.org/Graphics/SVG/1.1/DTD/svg11.dtd">
<!-- Created with Vectornator (http://vectornator.io/) -->
<svg height="100%" stroke-miterlimit="10" style="fill-rule:nonzero;clip-rule:evenodd;stroke-linecap:round;stroke-linejoin:round;" version="1.1" viewBox="0 0 1024 301" width="100%" xml:space="preserve" xmlns="http://www.w3.org/2000/svg" xmlns:vectornator="http://vectornator.io" xmlns:xlink="http://www.w3.org/1999/xlink">
<defs/>
<g id="レイヤー-1" vectornator:layerName="レイヤー 1">
<path d="M183.296 0.493824C174.812 0.493831 166.319 2.61101 159.534 6.90046L128.027 26.8375L47.5136 77.756L6.73103 103.526C-0.013672 107.79-2.02684 116.718 2.23682 123.463C6.50092 130.208 15.4297 132.222 22.1739 127.957L47.5136 111.941L47.5136 265.843C47.5136 284.994 63.0254 300.506 82.1764 300.506L284.416 300.506C303.567 300.506 319.078 284.994 319.079 265.843L319.079 111.941L344.37 127.957C351.115 132.221 360.043 130.208 364.308 123.463C368.572 116.718 366.558 107.79 359.813 103.526L319.079 77.8038L238.517 26.8375L207.058 6.90046C200.273 2.61095 191.78 0.493849 183.296 0.493824ZM142.561 103.383C146.999 103.382 151.415 105.065 154.801 108.45L183.296 136.946L211.743 108.45C218.514 101.68 229.499 101.68 236.27 108.45L249.562 121.79C256.333 128.561 256.333 139.498 249.562 146.269L221.114 174.764L249.562 203.211C256.333 209.982 256.333 220.967 249.562 227.738L236.27 241.077C229.499 247.848 218.514 247.848 211.743 241.077L183.296 212.582L154.801 241.077C148.03 247.848 137.045 247.848 130.274 241.077L116.983 227.738C110.212 220.967 110.212 209.982 116.983 203.211L145.43 174.764L116.983 146.269C110.212 139.498 110.212 128.561 116.983 121.79L130.274 108.45C133.659 105.065 138.124 103.383 142.561 103.383Z" fill="#1da1f2" fill-rule="nonzero" opacity="1" stroke="none" vectornator:layerName="曲線 5"/>
<path d="M505.732 74.9351C499.979 74.9217 493.756 75.6436 487.038 77.2301C487.038 77.23 474.548 80.1622 470.16 81.1983L396.245 98.6493C386.926 100.85 381.184 110.223 383.384 119.543L387.687 137.854C389.887 147.173 399.261 152.964 408.58 150.763L452.757 140.34L481.3 261.206C483.501 270.525 492.875 276.315 502.194 274.115L520.505 269.764C529.825 267.563 535.615 258.238 533.414 248.918L504.919 128.34C528.393 124.597 548.53 132.306 560.953 139.288C560.986 139.374 566.124 142.266 569.081 139.719C571.876 137.311 570.35 132.436 570.324 132.356C563.441 110.772 545.999 75.0295 505.732 74.9351Z" fill="#1da1f2" fill-rule="nonzero" opacity="1" stroke="none" vectornator:layerName="曲線 6"/>
<path d="M605.608 77.2301C596.033 77.2301 588.299 84.9619 588.301 94.5375L588.301 191.928C588.301 202.914 590.527 213.372 594.516 222.909C602.656 242.363 618.236 257.942 637.689 266.082C647.227 270.074 657.684 272.298 668.671 272.298C679.656 272.298 690.114 270.073 699.652 266.082C719.106 257.942 734.683 242.363 742.825 222.909C746.816 213.372 749.039 202.914 749.04 191.928L749.04 94.5375C749.04 84.9619 741.26 77.23 731.685 77.2301L712.848 77.2301C703.272 77.2301 695.492 84.962 695.492 94.5375L695.492 191.928C695.492 206.751 688.335 222.479 668.671 222.479C649.429 222.479 641.801 206.751 641.801 191.928L641.801 94.5375C641.801 84.9619 634.069 77.23 624.494 77.2301L605.608 77.2301Z" fill="#1da1f2" fill-rule="nonzero" opacity="1" stroke="none" vectornator:layerName="曲線 7"/>
<path d="M793.361 77.2301C783.786 77.23 776.054 84.9619 776.054 94.5375L776.054 254.943C776.053 264.518 783.785 272.298 793.361 272.298L812.246 272.298C821.822 272.298 829.554 264.518 829.554 254.943L829.554 94.5375C829.553 84.962 821.823 77.2301 812.246 77.2301L793.361 77.2301Z" fill="#1da1f2" fill-rule="nonzero" opacity="1" stroke="none" vectornator:layerName="曲線 8"/>
<path d="M949.893 77.2062C896.022 77.2062 852.359 120.916 852.36 174.788C852.359 228.659 896.022 272.322 949.893 272.322C976.829 272.322 1001.23 261.379 1018.88 243.731C1022.05 240.59 1024 236.207 1024 231.396C1024 227.253 1022.36 223.621 1019.94 220.638L1008.32 207.347C1005.15 203.844 1000.65 201.562 995.553 201.562C990.368 201.562 985.869 203.932 982.692 207.538C982.692 207.538 982.562 207.669 982.502 207.728C974.161 215.966 962.549 220.925 949.893 220.925C924.401 220.925 903.756 200.28 903.756 174.788C903.756 149.295 924.401 128.603 949.893 128.603C962.514 128.603 973.966 133.677 982.3 141.886C982.383 141.968 982.564 142.153 982.564 142.153C985.739 145.714 990.406 147.823 995.553 147.823C1000.74 147.823 1005.41 145.577 1008.58 141.971L1020.19 129.007C1022.57 126.041 1024 122.275 1024 118.18C1024 113.354 1022.02 108.988 1018.84 105.845L1018.88 105.797C1001.23 88.1404 976.83 77.2062 949.893 77.2062Z" fill="#1da1f2" fill-rule="nonzero" opacity="1" stroke="none" vectornator:layerName="曲線 9"/>
</g>
</svg>
