<?xml version="1.0" encoding="UTF-8" standalone="no"?>
<!DOCTYPE svg PUBLIC "-//W3C//DTD SVG 1.1//EN" "http://www.w3.org/Graphics/SVG/1.1/DTD/svg11.dtd">
<!-- Created with Vectornator (http://vectornator.io/) -->
<svg height="100%" stroke-miterlimit="10" style="fill-rule:nonzero;clip-rule:evenodd;stroke-linecap:round;stroke-linejoin:round;" version="1.1" viewBox="0 0 24 24" width="100%" xml:space="preserve" xmlns="http://www.w3.org/2000/svg" xmlns:xlink="http://www.w3.org/1999/xlink">
<defs/>
<g id="名称未設定">
<path d="M22.21 2.793C20.99 1.576 19.03 1.533 17.76 2.696L7.59 12.016C5.02 12.223 3 14.376 3 17L3 22L8 22C10.62 22 12.78 19.978 12.98 17.407L22.3 7.239C23.47 5.97 23.42 4.01 22.21 2.793ZM8 20L5 20L5 17C5 15.343 6.34 14 8 14C9.66 14 11 15.343 11 17C11 18.657 9.66 20 8 20ZM20.83 5.888L12.55 14.921C12.05 13.831 11.17 12.95 10.08 12.451L19.11 4.171C19.59 3.731 20.33 3.747 20.79 4.207C21.25 4.667 21.27 5.408 20.83 5.888Z" fill="#71767c" fill-rule="nonzero" opacity="1" stroke="none"/>
</g>
</svg>