<?xml version="1.0" encoding="UTF-8" standalone="no"?>
<!DOCTYPE svg PUBLIC "-//W3C//DTD SVG 1.1//EN" "http://www.w3.org/Graphics/SVG/1.1/DTD/svg11.dtd">
<!-- Created with Vectornator (http://vectornator.io/) -->
<svg height="100%" stroke-miterlimit="10" style="fill-rule:nonzero;clip-rule:evenodd;stroke-linecap:round;stroke-linejoin:round;" version="1.1" viewBox="0 0 24 24" width="100%" xml:space="preserve" xmlns="http://www.w3.org/2000/svg" xmlns:xlink="http://www.w3.org/1999/xlink">
<defs/>
<g id="名称未設定">
<path d="M1.998 5.5C1.998 4.119 3.117 3 4.498 3L19.498 3C20.879 3 21.998 4.119 21.998 5.5L21.998 18.5C21.998 19.881 20.879 21 19.498 21L4.498 21C3.117 21 1.998 19.881 1.998 18.5C1.998 18.5 1.998 5.5 1.998 5.5ZM4.498 5C4.222 5 3.998 5.224 3.998 5.5L3.998 8.264L11.998 11.902L19.998 8.266L19.998 5.5C19.998 5.224 19.774 5 19.498 5C19.498 5 4.498 5 4.498 5ZM19.998 10.463L11.998 14.099L3.998 10.461L3.998 18.5C3.998 18.776 4.222 19 4.498 19L19.498 19C19.774 19 19.998 18.776 19.998 18.5C19.998 18.5 19.998 10.463 19.998 10.463Z" fill="#71767c" fill-rule="nonzero" opacity="1" stroke="none"/>
</g>
</svg>