<?xml version="1.0" encoding="UTF-8" standalone="no"?>
<!DOCTYPE svg PUBLIC "-//W3C//DTD SVG 1.1//EN" "http://www.w3.org/Graphics/SVG/1.1/DTD/svg11.dtd">
<!-- Created with Vectornator (http://vectornator.io/) -->
<svg height="100%" stroke-miterlimit="10" style="fill-rule:nonzero;clip-rule:evenodd;stroke-linecap:round;stroke-linejoin:round;" version="1.1" viewBox="0 0 24 24" width="100%" xml:space="preserve" xmlns="http://www.w3.org/2000/svg" xmlns:xlink="http://www.w3.org/1999/xlink">
<defs/>
<g id="名称未設定">
<path d="M21.591 7.146L12.52 1.157C12.204 0.947 11.796 0.947 11.48 1.157L2.409 7.147C2.149 7.32 2 7.603 2 7.904L2 21.087C2 21.589 2.418 22 2.929 22L9.14 22C9.65 22 10.069 21.59 10.069 21.087L10.069 14.012L13.978 14.012L13.978 21.087C13.978 21.589 14.395 22 14.906 22L21.071 22C21.582 22 22 21.59 22 21.087L22 7.904C22 7.603 21.842 7.32 21.592 7.146L21.591 7.146Z" style="fill: var(--twitter-TUIC-color);" fill-rule="nonzero" opacity="1" stroke="none"/>
</g>
</svg>