<?xml version="1.0" encoding="UTF-8" standalone="no"?>
<!DOCTYPE svg PUBLIC "-//W3C//DTD SVG 1.1//EN" "http://www.w3.org/Graphics/SVG/1.1/DTD/svg11.dtd">
<!-- Created with Vectornator (http://vectornator.io/) -->
<svg height="100%" stroke-miterlimit="10" style="fill-rule:nonzero;clip-rule:evenodd;stroke-linecap:round;stroke-linejoin:round;" version="1.1" viewBox="0 0 24 24" width="100%" xml:space="preserve" xmlns="http://www.w3.org/2000/svg" xmlns:xlink="http://www.w3.org/1999/xlink">
<defs/>
<g id="名称未設定">
<path d="M12 1.75C6.34 1.75 1.75 6.34 1.75 12C1.75 17.66 6.34 22.25 12 22.25C17.66 22.25 22.25 17.66 22.25 12C22.25 6.34 17.66 1.75 12 1.75ZM13 17L11 17L11 12L13 12L13 17ZM12 10C11.17 10 10.5 9.33 10.5 8.5C10.5 7.67 11.17 7 12 7C12.83 7 13.5 7.67 13.5 8.5C13.5 9.33 12.83 10 12 10Z" fill="#71767c" fill-rule="nonzero" opacity="1" stroke="none"/>
</g>
</svg>