<?xml version="1.0" encoding="UTF-8" standalone="no"?>
<!DOCTYPE svg PUBLIC "-//W3C//DTD SVG 1.1//EN" "http://www.w3.org/Graphics/SVG/1.1/DTD/svg11.dtd">
<!-- Created with Vectornator (http://vectornator.io/) -->
<svg height="100%" stroke-miterlimit="10" style="fill-rule:nonzero;clip-rule:evenodd;stroke-linecap:round;stroke-linejoin:round;" version="1.1" viewBox="0 0 24 24" width="100%" xml:space="preserve" xmlns="http://www.w3.org/2000/svg" xmlns:xlink="http://www.w3.org/1999/xlink">
<defs/>
<g id="名称未設定">
<path d="M12 1.75C6.34 1.75 1.75 6.34 1.75 12C1.75 17.66 6.34 22.25 12 22.25C17.66 22.25 22.25 17.66 22.25 12C22.25 6.34 17.66 1.75 12 1.75ZM6.84375 10.6562C7.59125 10.6563 8.21875 11.2525 8.21875 12C8.21875 12.7475 7.59125 13.3438 6.84375 13.3438C6.09625 13.3437 5.5 12.7475 5.5 12C5.5 11.2525 6.09625 10.6562 6.84375 10.6562ZM12 10.6562C12.7475 10.6562 13.3437 11.2525 13.3438 12C13.3438 12.7475 12.7475 13.3437 12 13.3438C11.2525 13.3438 10.6563 12.7475 10.6562 12C10.6562 11.2525 11.2525 10.6563 12 10.6562ZM17.1562 10.6562C17.9037 10.6563 18.5 11.2525 18.5 12C18.5 12.7475 17.9037 13.3438 17.1562 13.3438C16.4088 13.3437 15.7812 12.7475 15.7812 12C15.7813 11.2525 16.4088 10.6562 17.1562 10.6562Z" style="fill: var(--twitter-TUIC-color);" fill-rule="nonzero" opacity="1" stroke="none"/>
</g>
</svg>