<?xml version="1.0" encoding="UTF-8" standalone="no"?>
<!DOCTYPE svg PUBLIC "-//W3C//DTD SVG 1.1//EN" "http://www.w3.org/Graphics/SVG/1.1/DTD/svg11.dtd">
<!-- Created with Vectornator (http://vectornator.io/) -->
<svg height="100%" stroke-miterlimit="10" style="fill-rule:nonzero;clip-rule:evenodd;stroke-linecap:round;stroke-linejoin:round;" version="1.1" viewBox="0 0 24 24" width="100%" xml:space="preserve" xmlns="http://www.w3.org/2000/svg" xmlns:xlink="http://www.w3.org/1999/xlink">
<defs/>
<g id="名称未設定">
<path d="M3.75 12C3.75 7.44 7.44 3.75 12 3.75C16.56 3.75 20.25 7.44 20.25 12C20.25 16.56 16.56 20.25 12 20.25C7.44 20.25 3.75 16.56 3.75 12ZM12 1.75C6.34 1.75 1.75 6.34 1.75 12C1.75 17.66 6.34 22.25 12 22.25C17.66 22.25 22.25 17.66 22.25 12C22.25 6.34 17.66 1.75 12 1.75ZM7.25 13.25C7.94 13.25 8.5 12.69 8.5 12C8.5 11.31 7.94 10.75 7.25 10.75C6.56 10.75 6 11.31 6 12C6 12.69 6.56 13.25 7.25 13.25ZM16.75 13.25C17.44 13.25 18 12.69 18 12C18 11.31 17.44 10.75 16.75 10.75C16.06 10.75 15.5 11.31 15.5 12C15.5 12.69 16.06 13.25 16.75 13.25ZM13.25 12C13.25 12.69 12.69 13.25 12 13.25C11.31 13.25 10.75 12.69 10.75 12C10.75 11.31 11.31 10.75 12 10.75C12.69 10.75 13.25 11.31 13.25 12Z" fill="#71767c" fill-rule="nonzero" opacity="1" stroke="none"/>
</g>
</svg>