<?xml version="1.0" encoding="UTF-8" standalone="no"?>
<!DOCTYPE svg PUBLIC "-//W3C//DTD SVG 1.1//EN" "http://www.w3.org/Graphics/SVG/1.1/DTD/svg11.dtd">
<!-- Created with Vectornator (http://vectornator.io/) -->
<svg height="100%" stroke-miterlimit="10" style="fill-rule:nonzero;clip-rule:evenodd;stroke-linecap:round;stroke-linejoin:round;" version="1.1" viewBox="0 0 24 24" width="100%" xml:space="preserve" xmlns="http://www.w3.org/2000/svg" xmlns:xlink="http://www.w3.org/1999/xlink">
<defs/>
<g id="名称未設定">
<path d="M12 1.75C6.34 1.75 1.75 6.34 1.75 12C1.75 17.66 6.34 22.25 12 22.25C17.66 22.25 22.25 17.66 22.25 12C22.25 6.34 17.66 1.75 12 1.75ZM12 3.75C16.56 3.75 20.25 7.44 20.25 12C20.25 13.9136 19.4975 15.6012 18.4062 17L7 5.59375C8.39876 4.50253 10.0864 3.75 12 3.75ZM5.59375 7L17 18.4062C15.6012 19.4975 13.9136 20.25 12 20.25C7.44 20.25 3.75 16.56 3.75 12C3.75 10.0864 4.50253 8.39876 5.59375 7Z" style="fill: var(--twitter-TUIC-color)" fill-rule="nonzero" opacity="1" stroke="none"/>
</g>
</svg>
