<?xml version="1.0" encoding="UTF-8" standalone="no"?>
<!DOCTYPE svg PUBLIC "-//W3C//DTD SVG 1.1//EN" "http://www.w3.org/Graphics/SVG/1.1/DTD/svg11.dtd">
<!-- Created with Vectornator (http://vectornator.io/) -->
<svg height="100%" stroke-miterlimit="10" style="fill-rule:nonzero;clip-rule:evenodd;stroke-linecap:round;stroke-linejoin:round;" version="1.1" viewBox="0 0 24 24" width="100%" xml:space="preserve" xmlns="http://www.w3.org/2000/svg" xmlns:xlink="http://www.w3.org/1999/xlink">
<defs/>
<g id="名称未設定">
<path d="M14.23 2.854C15.21 1.877 16.79 1.877 17.77 2.854L21.15 6.232C22.12 7.209 22.12 8.791 21.15 9.768L9.91 21L3 21L3 14.086L14.23 2.854ZM16.35 4.268C16.16 4.073 15.84 4.073 15.65 4.268L5 14.914L5 19L9.09 19L19.73 8.354C19.93 8.158 19.93 7.842 19.73 7.646C19.73 7.646 16.35 4.268 16.35 4.268ZM14.75 19L12.75 21L21 21L21 19L14.75 19Z" fill="#71767c" fill-rule="nonzero" opacity="1" stroke="none"/>
</g>
</svg>