<?xml version="1.0" encoding="UTF-8" standalone="no"?>
<!DOCTYPE svg PUBLIC "-//W3C//DTD SVG 1.1//EN" "http://www.w3.org/Graphics/SVG/1.1/DTD/svg11.dtd">
<!-- Created with Vectornator (http://vectornator.io/) -->
<svg height="100%" stroke-miterlimit="10" style="fill-rule:nonzero;clip-rule:evenodd;stroke-linecap:round;stroke-linejoin:round;" version="1.1" viewBox="0 0 24 24" width="100%" xml:space="preserve" xmlns="http://www.w3.org/2000/svg" xmlns:xlink="http://www.w3.org/1999/xlink">
<defs/>
<g id="名称未設定">
<path d="M5.651 19L18.349 19C18.012 17.2 17.326 15.79 16.404 14.81C15.318 13.65 13.838 13 12 13C10.162 13 8.683 13.65 7.596 14.81C6.674 15.79 5.988 17.2 5.651 19ZM6.137 13.44C7.627 11.85 9.648 11 12 11C14.352 11 16.373 11.85 17.863 13.44C19.34 15.02 20.229 17.24 20.495 19.9L20.605 21L3.395 21L3.505 19.9C3.771 17.24 4.66 15.02 6.137 13.44ZM12 4C10.895 4 10 4.9 10 6C10 7.1 10.895 8 12 8C13.105 8 14 7.1 14 6C14 4.9 13.105 4 12 4ZM8 6C8 3.79 9.791 2 12 2C14.209 2 16 3.79 16 6C16 8.21 14.209 10 12 10C9.791 10 8 8.21 8 6Z" fill="#71767c" fill-rule="nonzero" opacity="1" stroke="none"/>
</g>
</svg>