<?xml version="1.0" encoding="UTF-8" standalone="no"?>
<!DOCTYPE svg PUBLIC "-//W3C//DTD SVG 1.1//EN" "http://www.w3.org/Graphics/SVG/1.1/DTD/svg11.dtd">
<!-- Created with Vectornator (http://vectornator.io/) -->
<svg height="100%" stroke-miterlimit="10" style="fill-rule:nonzero;clip-rule:evenodd;stroke-linecap:round;stroke-linejoin:round;" version="1.1" viewBox="0 0 24 24" width="100%" xml:space="preserve" xmlns="http://www.w3.org/2000/svg" xmlns:xlink="http://www.w3.org/1999/xlink">
<defs/>
<g id="名称未設定">
<path d="M12 3.75C7.44365 3.75 3.75 7.44365 3.75 12C3.75 16.5563 7.44365 20.25 12 20.25C15.1963 20.25 18.0701 18.4201 19.4375 15.5938L17.625 14.7188C16.5885 16.8611 14.422 18.25 12 18.25C8.54822 18.25 5.75 15.4518 5.75 12C5.75 8.54822 8.54822 5.75 12 5.75C13.9666 5.75 15.5243 6.82298 16.6562 8.25L13.75 8.25L13.75 10.25L20.25 10.25L20.25 3.75L18.25 3.75L18.25 6.8125C16.7644 4.9676 14.5657 3.75 12 3.75Z" style="fill: var(--twitter-TUIC-color);" fill-rule="nonzero" opacity="1" stroke="none"/>
</g>
</svg>
