<?xml version="1.0" encoding="UTF-8" standalone="no"?>
<!DOCTYPE svg PUBLIC "-//W3C//DTD SVG 1.1//EN" "http://www.w3.org/Graphics/SVG/1.1/DTD/svg11.dtd">
<!-- Created with Vectornator (http://vectornator.io/) -->
<svg height="100%" stroke-miterlimit="10" style="fill-rule:nonzero;clip-rule:evenodd;stroke-linecap:round;stroke-linejoin:round;" version="1.1" viewBox="0 0 24 24" width="100%" xml:space="preserve" xmlns="http://www.w3.org/2000/svg" xmlns:xlink="http://www.w3.org/1999/xlink">
<defs/>
<g id="名称未設定">
<path d="M4.5 4C3.12 4 2 5.12 2 6.5L2 17.5C2 18.88 3.12 20 4.5 20L11 20L11 4L4.5 4ZM13 4L13 20L19.5 20C20.88 20 22 18.88 22 17.5L22 6.5C22 5.12 20.88 4 19.5 4L13 4ZM16 8L19 8L19 10L16 10L16 8ZM16 12L19 12L19 14L16 14L16 12Z" style="fill: var(--twitter-TUIC-color)" fill-rule="nonzero" opacity="1" stroke="none"/>
</g>
</svg>