<?xml version="1.0" encoding="UTF-8" standalone="no"?>
<!DOCTYPE svg PUBLIC "-//W3C//DTD SVG 1.1//EN" "http://www.w3.org/Graphics/SVG/1.1/DTD/svg11.dtd">
<!-- Created with Vectornator (http://vectornator.io/) -->
<svg height="100%" stroke-miterlimit="10" style="fill-rule:nonzero;clip-rule:evenodd;stroke-linecap:round;stroke-linejoin:round;" version="1.1" viewBox="0 0 24 24" width="100%" xml:space="preserve" xmlns="http://www.w3.org/2000/svg" xmlns:xlink="http://www.w3.org/1999/xlink">
<defs/>
<g id="名称未設定">
<path d="M2 4C3.66 4 5 2.66 5 1L6 1C6 2.66 7.34 4 9 4L9 5C7.34 5 6 6.34 6 8L5 8C5 6.34 3.66 5 2 5L2 4ZM9.89 8.9C11.26 7.53 12 5.35 12 2L14 2C14 5.35 14.74 7.53 16.1 8.9C17.46 10.26 19.65 11 23 11L23 13C19.65 13 17.46 13.74 16.1 15.1C14.74 16.47 14 18.65 14 22L12 22C12 18.65 11.26 16.47 9.89 15.1C8.53 13.74 6.35 13 3 13L3 11C6.35 11 8.53 10.26 9.89 8.9ZM17.21 12C16.24 11.58 15.4 11.03 14.68 10.31C13.97 9.6 13.41 8.75 13 7.79C12.58 8.75 12.02 9.6 11.31 10.31C10.59 11.03 9.75 11.58 8.78 12C9.75 12.42 10.59 12.97 11.31 13.69C12.02 14.4 12.58 15.25 13 16.21C13.41 15.25 13.97 14.4 14.68 13.69C15.4 12.97 16.24 12.42 17.21 12Z" fill="#71767c" fill-rule="nonzero" opacity="1" stroke="none"/>
</g>
</svg>