<?xml version="1.0" encoding="UTF-8" standalone="no"?>
<!DOCTYPE svg PUBLIC "-//W3C//DTD SVG 1.1//EN" "http://www.w3.org/Graphics/SVG/1.1/DTD/svg11.dtd">
<!-- Created with Vectornator (http://vectornator.io/) -->
<svg height="100%" stroke-miterlimit="10" style="fill-rule:nonzero;clip-rule:evenodd;stroke-linecap:round;stroke-linejoin:round;" version="1.1" viewBox="0 0 24 24" width="100%" xml:space="preserve" xmlns="http://www.w3.org/2000/svg" xmlns:xlink="http://www.w3.org/1999/xlink">
<defs/>
<g id="名称未設定">
<path d="M2 3L2 5L10 5L10 3L2 3ZM23 3C16.38 2.9 12.6075 5.42225 9.9375 9.03125C7.2775 12.6113 6 17.331 6 22L8 22C8 20.993 8.0675 19.988 8.1875 19L12 19C15.2006 19 17.9117 17.0908 19.1875 14.375C18.8527 14.5212 18.551 14.7017 18.1562 14.7812C16.9432 15.0258 14.5 15.0312 14.5 15.0312L14.5 13L16.0938 12.9688C17.304 12.9247 18.8064 12.7546 19.9375 11.9375C22.7875 10.1385 23.17 6.359 23 3ZM2 7L2 9L7 9L7 7L2 7Z" style="fill: var(--twitter-TUIC-color);" fill-rule="nonzero" opacity="1" stroke="none"/>
</g>
</svg>