<?xml version="1.0" encoding="UTF-8" standalone="no"?>
<!DOCTYPE svg PUBLIC "-//W3C//DTD SVG 1.1//EN" "http://www.w3.org/Graphics/SVG/1.1/DTD/svg11.dtd">
<!-- Created with Vectornator (http://vectornator.io/) -->
<svg height="100%" stroke-miterlimit="10" style="fill-rule:nonzero;clip-rule:evenodd;stroke-linecap:round;stroke-linejoin:round;" version="1.1" viewBox="0 0 24 24" width="100%" xml:space="preserve" xmlns="http://www.w3.org/2000/svg" xmlns:xlink="http://www.w3.org/1999/xlink">
<defs/>
<g id="名称未設定">
<path d="M9.99879 5.00257L2 5.00257L2 3.00287L9.99879 3.00287L9.99879 5.00257ZM6.99924 7.00227L2 7.00227L2 9.00196L6.99924 9.00196L6.99924 7.00227ZM19.9373 11.9475C19.4774 15.9189 16.0979 19.0005 11.9985 19.0005L8.18906 19.0005C8.06908 19.9883 7.99909 20.9932 7.99909 22L5.9994 22C5.9994 17.3317 7.2892 12.6114 9.9488 9.03196C12.6184 5.42351 16.3778 2.90289 22.9968 3.00287C23.1668 6.36136 22.7869 10.1488 19.9373 11.9475ZM20.9971 5.03556C16.8378 5.31152 13.7082 7.31022 11.5486 10.2218C10.1188 12.1505 9.11892 14.4891 8.54901 17.0008L11.9985 17.0008C14.6781 17.0008 16.9477 15.241 17.7176 12.8134C17.1977 12.9214 16.6278 12.9854 15.9979 13.0014L14.4981 13.0014L14.4981 11.0017L15.9979 11.0017C19.8973 11.0017 20.9471 8.0811 20.9971 5.03556Z" fill="#71767c" fill-rule="nonzero" opacity="1" stroke="none"/>
</g>
</svg>