<?xml version="1.0" encoding="UTF-8" standalone="no"?>
<!DOCTYPE svg PUBLIC "-//W3C//DTD SVG 1.1//EN" "http://www.w3.org/Graphics/SVG/1.1/DTD/svg11.dtd">
<!-- Created with Vectornator (http://vectornator.io/) -->
<svg height="100%" stroke-miterlimit="10" style="fill-rule:nonzero;clip-rule:evenodd;stroke-linecap:round;stroke-linejoin:round;" version="1.1" viewBox="0 0 24 24" width="100%" xml:space="preserve" xmlns="http://www.w3.org/2000/svg" xmlns:xlink="http://www.w3.org/1999/xlink">
<defs/>
<g id="名称未設定">
<path d="M22.25 12C22.2304 11.2953 22.0155 10.6091 21.6282 10.0189C21.242 9.42986 20.6988 8.9586 20.0595 8.6597C20.3028 7.99753 20.354 7.28081 20.2122 6.59028C20.0693 5.89865 19.7355 5.26157 19.2501 4.74995C18.7373 4.2645 18.1013 3.93178 17.4097 3.78778C16.7192 3.64597 16.0025 3.69724 15.3403 3.94051C15.0425 3.30015 14.5723 2.7558 13.9821 2.36963C13.392 1.98345 12.7058 1.76745 12 1.75C11.2953 1.76855 10.6113 1.98236 10.0222 2.36963C9.43314 2.75689 8.96514 3.30125 8.66951 3.94051C8.00625 3.69724 7.28736 3.64378 6.59464 3.78778C5.90193 3.9296 5.26376 4.26341 4.75104 4.74995C4.26559 5.26266 3.93396 5.90084 3.79324 6.59137C3.65142 7.2819 3.70597 7.99862 3.95032 8.6597C3.30997 8.9586 2.76453 9.42877 2.37617 10.0179C1.98781 10.6069 1.77073 11.2942 1.75 12C1.77182 12.7058 1.98781 13.392 2.37617 13.9821C2.76453 14.5712 3.30997 15.0425 3.95032 15.3403C3.70597 16.0014 3.65142 16.7181 3.79324 17.4086C3.93505 18.1003 4.26559 18.7373 4.74995 19.2501C5.26266 19.7333 5.89974 20.0649 6.59028 20.2079C7.28081 20.3519 7.99753 20.2995 8.6597 20.0595C8.9586 20.6988 9.42877 21.242 10.0189 21.6293C10.608 22.0155 11.2953 22.2304 12 22.25C12.7058 22.2325 13.392 22.0176 13.9821 21.6315C14.5723 21.2453 15.0425 20.6998 15.3403 20.0606C15.9992 20.3213 16.7214 20.3835 17.4163 20.2395C18.1101 20.0955 18.7472 19.7519 19.249 19.2501C19.7508 18.7482 20.0955 18.1112 20.2395 17.4163C20.3835 16.7214 20.3213 15.9992 20.0595 15.3403C20.6988 15.0414 21.242 14.5712 21.6293 13.9811C22.0155 13.392 22.2304 12.7047 22.25 12ZM10.5404 16.1999L6.79973 12.4604L8.21025 11.04L10.4706 13.3003L15.2705 8.07062L16.7399 9.42986L10.5404 16.1999Z" style="fill: var(--twitter-TUIC-color);" fill-rule="nonzero" opacity="1" stroke="none"/>
</g>
</svg>
